<svg width="500" height="500" xmlns="http://www.w3.org/2000/svg">
 <g>
  <title>Layer 1</title>
  <g id="svg_5">
   <path id="svg_6" d="m249.829987,4.891006c-135.229996,0 -244.828003,109.598007 -244.828003,244.827988c0,135.234009 109.597992,244.832031 244.828003,244.832031c135.233978,0 244.832001,-109.598022 244.832001,-244.832031c0,-135.22998 -109.597992,-244.827988 -244.832001,-244.827988l0,0zm0,465.92601c-121.763,0 -221.095001,-99.33197 -221.095001,-221.098022c0,-121.761993 99.332001,-221.093979 221.095001,-221.093979c121.765991,0 221.097992,99.332016 221.097992,221.093979c0,121.765991 -99.33197,221.098022 -221.097992,221.098022l0,0zm95.47702,-213.383026c4.507996,4.511993 4.507996,12.164001 0,16.675995l-87.167999,87.762024c-0.652008,0.651978 -1.304993,1.304993 -1.89801,1.304993l-0.651978,0.651978c-0.652008,0 -0.652008,0.652039 -1.309021,0.652039c-0.651978,0 -0.651978,0 -1.304993,0.651978h-7.710999c-0.657013,0 -0.657013,0 -1.30899,-0.651978c-0.652008,0 -0.652008,-0.652039 -1.306,-0.652039c0,0 -0.651001,0 -0.651001,-0.651978c-0.652008,-0.652039 -1.306,-0.652039 -1.89801,-1.304993l-86.394989,-88.414032c-4.513,-4.511993 -4.513,-12.164001 0,-16.675995c4.507996,-4.511993 12.163986,-4.511993 16.671997,0l67.944,67.94101v-187.804993c0,-6.406006 5.102997,-11.511993 11.513,-11.511993c6.406006,0 11.511993,5.10498 11.511993,11.511993v187.746002l66.695007,-66.636993c5.10199,-5.101013 12.815979,-5.101013 17.265991,-0.593018l0,0zm0,0" fill="#1CA2D8"/>
  </g>
 </g>
</svg>