<svg width="500" height="500" xmlns="http://www.w3.org/2000/svg">
 <g>
  <title>Layer 1</title>
  <g id="svg_3">
   <path id="svg_4" d="m494.659973,249.717957c0,-135.22998 -109.597992,-244.827972 -244.828003,-244.827972c-135.233963,0 -244.83197,109.598053 -244.83197,244.827972c0,135.235046 109.598007,244.832031 244.832001,244.832031c135.230988,0 244.827972,-109.596985 244.827972,-244.832031l0,0zm-465.925964,0c0,-121.761963 99.331985,-221.093964 221.097992,-221.093964c121.762024,0 221.094025,99.332001 221.094025,221.093964c0,121.766052 -99.332031,221.098022 -221.094025,221.098022c-121.766006,0 -221.097992,-99.33197 -221.097992,-221.098022l0,0zm213.382996,95.477051c-4.511993,4.507996 -12.164001,4.507996 -16.675995,0l-87.761993,-87.167969c-0.652039,-0.652039 -1.305023,-1.305054 -1.305023,-1.89801l-0.652008,-0.651978c0,-0.652039 -0.651978,-0.652039 -0.651978,-1.309082c0,-0.651978 0,-0.651978 -0.652008,-1.304932v-7.710022c0,-0.657043 0,-0.657043 0.652008,-1.30896c0,-0.652039 0.651978,-0.652039 0.651978,-1.305054c0,0 0,-0.651978 0.652008,-0.651978c0.652008,-0.651978 0.652008,-1.304993 1.305023,-1.89801l88.413971,-86.394958c4.512024,-4.512024 12.164001,-4.512024 16.676025,0c4.511993,4.507935 4.511993,12.16394 0,16.671936l-67.94101,67.945007h187.804993c6.406006,0 11.511993,5.10199 11.511993,11.512024c0,6.406006 -5.10498,11.512024 -11.511993,11.512024h-187.746002l66.636993,66.695007c5.101013,5.100952 5.101013,12.815979 0.593018,17.264954l0,0zm0,0" fill="#ffffff"/>
  </g>
 </g>
</svg>